<?xml version="1.0" encoding="iso-8859-1"?>
<!DOCTYPE svg PUBLIC "-//W3C//DTD SVG 1.1//EN" "http://www.w3.org/Graphics/SVG/1.1/DTD/svg11.dtd">
<svg version="1.1" xmlns="http://www.w3.org/2000/svg" xmlns:xlink="http://www.w3.org/1999/xlink" x="0px" y="0px" width="30" height="30" viewBox="0 0 30 30" xml:space="preserve">
    <g transform="translate(-90 -200)">
        <g xmlns="http://www.w3.org/2000/svg" xmlns:xlink="http://www.w3.org/1999/xlink" id="doctor_1_">
		<path d="M106.131,226.38l-0.326-1.358L107,223l-2-1l-2,1l1.194,2.021l-0.327,1.364c0.423,0.524,0.822,0.954,1.131,1.259    C105.308,227.338,105.707,226.906,106.131,226.38z"/>
		<path d="M106.726,202.225C106.21,202.084,105.641,202,105,202c-3.771,0-5.264,2.665-5.771,5.396    c1.639-1.024,3.461-1.496,4.803-1.712C104.161,204.068,105.249,202.729,106.726,202.225z"/>
		<path d="M109.465,209.713c0.127,0.541,0.223,1.135,0.269,1.772c0.009,0.119,0.025,0.231,0.03,0.354    c0.042,0.932,0.273,0.811,0.529,0.201c0.262-0.625,0.546-1.764,0.684-2.859c-0.008-0.162-0.021-0.327-0.035-0.492    C110.534,209.134,110.035,209.488,109.465,209.713z"/>
		<path d="M99.023,209.182c0.138,1.096,0.422,2.234,0.684,2.859c0.256,0.609,0.487,0.73,0.529-0.201    c0.005-0.123,0.021-0.235,0.03-0.354c0.131-1.796,0.638-3.246,1.204-4.075c-0.826,0.318-1.663,0.745-2.416,1.33    C99.043,208.888,99.031,209.037,99.023,209.182z"/>
		<path d="M103.41,206.83c0.24,0.094,0.492,0.201,0.773,0.287c-0.04-0.138-0.087-0.272-0.112-0.416    C103.861,206.736,103.641,206.779,103.41,206.83z"/>
		<path style="opacity:0.4;" d="M111.14,209.148c-0.051-0.012-0.104-0.008-0.159,0.008c-0.137,1.104-0.424,2.255-0.688,2.885    c-0.256,0.609-0.487,0.73-0.529-0.201c-0.005-0.123-0.021-0.235-0.03-0.354c-0.046-0.638-0.142-1.231-0.269-1.772    C109.01,209.894,108.519,210,108,210c-1.815,0-3.33-1.223-3.816-2.883c-0.281-0.086-0.533-0.193-0.773-0.287    c-0.604,0.131-1.268,0.322-1.939,0.58c-0.566,0.829-1.073,2.279-1.204,4.075c-0.009,0.119-0.025,0.231-0.03,0.354    c-0.042,0.932-0.273,0.811-0.529,0.201c-0.264-0.63-0.551-1.781-0.688-2.885c-0.055-0.016-0.108-0.02-0.159-0.008    c-0.433,0.107-0.519,1.245-0.194,2.539c0.303,1.219,0.858,2.127,1.283,2.146c0.26,1.438,0.692,2.767,1.426,3.5    c0.496,0.496,0.577,2.207,0.443,2.666l3.182,1l3.182-1c-0.134-0.459-0.053-2.17,0.443-2.666c0.733-0.733,1.166-2.062,1.426-3.5    c0.425-0.02,0.98-0.928,1.283-2.146C111.658,210.394,111.572,209.256,111.14,209.148z"/>
		<path style="opacity:0.85;" d="M108,203c-1.657,0-3,1.344-3,3s1.343,3,3,3s3-1.344,3-3S109.657,203,108,203z M108,207    c-0.553,0-1-0.447-1-1s0.447-1,1-1s1,0.447,1,1S108.553,207,108,207z"/>
		<path style="opacity:0.75;" d="M112.969,224.562c-0.096-1.538-0.688-2.948-1.625-4.101c-0.513-0.082-0.996-0.155-1.422-0.218    C109.311,225.545,105,229,105,229s-4.311-3.455-4.922-8.757c-0.429,0.063-0.916,0.138-1.432,0.22    C97.616,221.723,97,223.293,97,225v2.07c0.861,0.224,1.5,0.999,1.5,1.93c0,0.366-0.105,0.705-0.277,1H105h5v-1.5    C110,226.502,111.292,224.856,112.969,224.562z"/>
		<path style="opacity:0.75;" d="M96,227.07V225c0-1.572,0.459-3.041,1.252-4.305C95.16,221.062,92.939,221.53,92,222c-2,1-2,8-2,8    h4.777c-0.172-0.295-0.277-0.634-0.277-1C94.5,228.069,95.139,227.294,96,227.07z"/>
		<path style="opacity:0.75;" d="M118,222c-0.942-0.471-3.173-0.941-5.27-1.308c0.714,1.145,1.159,2.456,1.238,3.862    c1.706,0.264,3.031,1.923,3.031,3.945v1.5h3C120,230,120,223,118,222z"/>
		<path style="opacity:0.75;" d="M113.5,225.5c-1.379,0-2.5,1.346-2.5,3v1.5h5v-1.5C116,226.846,114.879,225.5,113.5,225.5z"/>
		<path d="M98.5,229c0-0.931-0.639-1.706-1.5-1.93V225c0-2.696,1.53-5.058,3.814-6.379c-0.041-0.267-0.1-0.503-0.172-0.609    c-0.087-0.087-0.163-0.202-0.245-0.303C97.77,219.194,96,221.902,96,225v2.07c-0.861,0.224-1.5,0.999-1.5,1.93    c0,0.366,0.105,0.705,0.277,1h3.445C98.395,229.705,98.5,229.366,98.5,229z"/>
		<path d="M111,228.5c0-1.654,1.121-3,2.5-3s2.5,1.346,2.5,3v1.5h1v-1.5c0-2.022-1.325-3.682-3.031-3.945    c-0.163-2.909-1.867-5.434-4.367-6.846c-0.09,0.111-0.173,0.235-0.27,0.332c-0.063,0.094-0.114,0.318-0.151,0.577    c2.161,1.249,3.631,3.431,3.788,5.943c-1.677,0.295-2.969,1.94-2.969,3.938v1.5h1V228.5z"/>
	</g>
	
    </g>
</svg>
